<svg width="25" height="24" viewBox="0 0 25 24" fill="none" xmlns="http://www.w3.org/2000/svg">
<path d="M12.6984 24.0002C19.2461 24.0002 24.554 18.6923 24.554 12.1447C24.554 5.59705 19.2461 0.289139 12.6984 0.289139C6.1508 0.289139 0.842896 5.59705 0.842896 12.1447C0.842896 18.6923 6.1508 24.0002 12.6984 24.0002Z" fill="#EE7B67"/>
<path d="M24.5544 12.1448C24.5544 11.2546 24.4563 10.3872 24.2703 9.55297L20.9885 6.27121L20.0483 9.4986L17.6126 7.06294L5.16937 20.2538L7.90823 22.9926C9.37318 23.6405 10.994 24.0004 12.6989 24.0004C19.2465 24.0004 24.5544 18.6925 24.5544 12.1448Z" fill="#BE574E"/>
<path d="M5.16853 4.0695H11.5164V20.2555H5.16853V4.0695Z" fill="white"/>
<path d="M17.6102 7.0647L14.615 4.0695H11.3908V20.2555H17.6102V7.0647Z" fill="#E9EDF5"/>
<path d="M14.616 7.0647H17.6112L14.616 4.0695V7.0647Z" fill="#CDD2E1"/>
<path d="M20.9887 16.8624L19.8213 19.05L18.6539 16.8624L19.8213 16.3192L20.9887 16.8624Z" fill="white"/>
<path d="M19.8202 16.3197L19.8142 16.3225L19.8202 19.0506L20.9876 16.8629L19.8202 16.3197Z" fill="#E9EDF5"/>
<path d="M18.6539 6.27086H20.9887V16.8623H18.6539V6.27086Z" fill="#FFCE00"/>
<path d="M19.818 6.27086H20.9914V16.8624H19.818V6.27086Z" fill="#FDBA12"/>
<path d="M6.31055 8.00621H8.39263V10.0883H6.31055V8.00621Z" fill="#E9EDF5"/>
<path d="M9.42105 8.70166H15.6221V10.091H9.42105V8.70166Z" fill="#CDD2E1"/>
<path d="M11.3896 8.70166H15.6174V10.091H11.3896V8.70166Z" fill="#AFB4C8"/>
<path d="M6.31055 11.7215H8.39263V13.8035H6.31055V11.7215Z" fill="#E9EDF5"/>
<path d="M9.42105 12.4152H15.6221V13.8045H9.42105V12.4152Z" fill="#CDD2E1"/>
<path d="M11.3896 12.4152H15.6174V13.8045H11.3896V12.4152Z" fill="#AFB4C8"/>
<path d="M6.31055 15.4359H8.39263V17.518H6.31055V15.4359Z" fill="#E9EDF5"/>
<path d="M9.42104 16.1282H15.622V17.5176H9.42104V16.1282Z" fill="#CDD2E1"/>
<path d="M11.3896 16.1287H15.6174V17.518H11.3896V16.1287Z" fill="#AFB4C8"/>
<path d="M7.42253 14.1921L5.81953 12.5891L6.80192 11.6068L7.42253 12.2273L9.26186 10.388L10.2442 11.3704L7.42253 14.1921Z" fill="#555A66"/>
</svg>
