<svg width="21" height="23" viewBox="0 0 21 23" fill="none" xmlns="http://www.w3.org/2000/svg">
<path d="M0 19.7712C0 20.6277 0.340212 21.449 0.945793 22.0546C1.55137 22.6602 2.37272 23.0004 3.22914 23.0004H17.7709C18.6273 23.0004 19.4486 22.6602 20.0542 22.0546C20.6598 21.449 21 20.6277 21 19.7712V6.84763H0V19.7712Z" fill="url(#paint0_linear_1_360)"/>
<path d="M5.09445 10.0757H4.64222C3.86174 10.0757 3.22903 10.7085 3.22903 11.4889V11.9412C3.22903 12.7216 3.86174 13.3543 4.64222 13.3543H5.09445C5.87493 13.3543 6.50763 12.7216 6.50763 11.9412V11.4889C6.50763 10.7085 5.87493 10.0757 5.09445 10.0757Z" fill="url(#paint1_linear_1_360)"/>
<path d="M10.7472 10.0757H10.2949C9.51445 10.0757 8.88174 10.7085 8.88174 11.4889V11.9412C8.88174 12.7216 9.51445 13.3543 10.2949 13.3543H10.7472C11.5276 13.3543 12.1603 12.7216 12.1603 11.9412V11.4889C12.1603 10.7085 11.5276 10.0757 10.7472 10.0757Z" fill="url(#paint2_linear_1_360)"/>
<path d="M16.3999 10.0757H15.9476C15.1672 10.0757 14.5345 10.7085 14.5345 11.4889V11.9412C14.5345 12.7216 15.1672 13.3543 15.9476 13.3543H16.3999C17.1803 13.3543 17.8131 12.7216 17.8131 11.9412V11.4889C17.8131 10.7085 17.1803 10.0757 16.3999 10.0757Z" fill="url(#paint3_linear_1_360)"/>
<path d="M5.09445 16.4919H4.64222C3.86174 16.4919 3.22903 17.1246 3.22903 17.9051V18.3573C3.22903 19.1378 3.86174 19.7705 4.64222 19.7705H5.09445C5.87493 19.7705 6.50763 19.1378 6.50763 18.3573V17.9051C6.50763 17.1246 5.87493 16.4919 5.09445 16.4919Z" fill="url(#paint4_linear_1_360)"/>
<path d="M10.7472 16.4919H10.2949C9.51445 16.4919 8.88174 17.1246 8.88174 17.9051V18.3573C8.88174 19.1378 9.51445 19.7705 10.2949 19.7705H10.7472C11.5276 19.7705 12.1603 19.1378 12.1603 18.3573V17.9051C12.1603 17.1246 11.5276 16.4919 10.7472 16.4919Z" fill="url(#paint5_linear_1_360)"/>
<path d="M16.3999 16.4919H15.9476C15.1672 16.4919 14.5345 17.1246 14.5345 17.9051V18.3573C14.5345 19.1378 15.1672 19.7705 15.9476 19.7705H16.3999C17.1803 19.7705 17.8131 19.1378 17.8131 18.3573V17.9051C17.8131 17.1246 17.1803 16.4919 16.3999 16.4919Z" fill="url(#paint6_linear_1_360)"/>
<path d="M17.7709 2.00685C18.6273 2.00685 19.4486 2.34706 20.0542 2.95264C20.6598 3.55822 21 4.37957 21 5.23599V6.84703H0V5.23599C0 4.37957 0.340212 3.55822 0.945793 2.95264C1.55137 2.34706 2.37272 2.00685 3.22914 2.00685H17.7709Z" fill="url(#paint7_linear_1_360)"/>
<path d="M5.65281 4.42306C5.43917 4.42306 5.23428 4.3382 5.08322 4.18713C4.93216 4.03607 4.84729 3.83118 4.84729 3.61754V1.19392C4.84729 0.97935 4.93253 0.773565 5.08426 0.621838C5.23598 0.470112 5.44177 0.384872 5.65634 0.384872C5.87092 0.384872 6.0767 0.470112 6.22843 0.621838C6.38015 0.773565 6.46539 0.97935 6.46539 1.19392V3.61754C6.4654 3.72392 6.44433 3.82925 6.40341 3.92744C6.36248 4.02564 6.30252 4.11475 6.22697 4.18964C6.15142 4.26454 6.06178 4.32372 5.96324 4.36379C5.86469 4.40385 5.75918 4.424 5.65281 4.42306Z" fill="url(#paint8_linear_1_360)"/>
<path d="M10.5001 4.42306C10.2865 4.42306 10.0816 4.3382 9.93054 4.18713C9.77948 4.03607 9.69461 3.83118 9.69461 3.61754V1.19392C9.69461 0.97935 9.77985 0.773565 9.93158 0.621838C10.0833 0.470112 10.2891 0.384872 10.5037 0.384872C10.7182 0.384872 10.924 0.470112 11.0757 0.621838C11.2275 0.773565 11.3127 0.97935 11.3127 1.19392V3.61754C11.3127 3.72392 11.2917 3.82925 11.2507 3.92744C11.2098 4.02564 11.1498 4.11475 11.0743 4.18964C10.9987 4.26454 10.9091 4.32372 10.8106 4.36379C10.712 4.40385 10.6065 4.424 10.5001 4.42306Z" fill="url(#paint9_linear_1_360)"/>
<path d="M15.3474 4.42306C15.1338 4.42306 14.9289 4.3382 14.7778 4.18713C14.6268 4.03607 14.5419 3.83118 14.5419 3.61754V1.19392C14.5419 0.97935 14.6271 0.773565 14.7789 0.621838C14.9306 0.470112 15.1364 0.384872 15.351 0.384872C15.5655 0.384872 15.7713 0.470112 15.923 0.621838C16.0748 0.773565 16.16 0.97935 16.16 1.19392V3.61754C16.16 3.72392 16.1389 3.82925 16.098 3.92744C16.0571 4.02564 15.9971 4.11475 15.9216 4.18964C15.846 4.26454 15.7564 4.32372 15.6578 4.36379C15.5593 4.40385 15.4538 4.424 15.3474 4.42306Z" fill="url(#paint10_linear_1_360)"/>
<defs>
<linearGradient id="paint0_linear_1_360" x1="10.5" y1="23.0004" x2="10.5" y2="6.84763" gradientUnits="userSpaceOnUse">
<stop stop-color="#FF8B51"/>
<stop offset="1" stop-color="#D23E3F"/>
</linearGradient>
<linearGradient id="paint1_linear_1_360" x1="3.22903" y1="11.7221" x2="6.5147" y2="11.7221" gradientUnits="userSpaceOnUse">
<stop stop-color="#F6F0EA"/>
<stop offset="1" stop-color="#F1DFD1"/>
</linearGradient>
<linearGradient id="paint2_linear_1_360" x1="8.88174" y1="11.7221" x2="12.1674" y2="11.7221" gradientUnits="userSpaceOnUse">
<stop stop-color="#F6F0EA"/>
<stop offset="1" stop-color="#F1DFD1"/>
</linearGradient>
<linearGradient id="paint3_linear_1_360" x1="14.5345" y1="11.7221" x2="17.8201" y2="11.7221" gradientUnits="userSpaceOnUse">
<stop stop-color="#F6F0EA"/>
<stop offset="1" stop-color="#F1DFD1"/>
</linearGradient>
<linearGradient id="paint4_linear_1_360" x1="3.22903" y1="18.1312" x2="6.5147" y2="18.1312" gradientUnits="userSpaceOnUse">
<stop stop-color="#F6F0EA"/>
<stop offset="1" stop-color="#F1DFD1"/>
</linearGradient>
<linearGradient id="paint5_linear_1_360" x1="8.88174" y1="18.1312" x2="12.1674" y2="18.1312" gradientUnits="userSpaceOnUse">
<stop stop-color="#F6F0EA"/>
<stop offset="1" stop-color="#F1DFD1"/>
</linearGradient>
<linearGradient id="paint6_linear_1_360" x1="14.5345" y1="18.1312" x2="17.8201" y2="18.1312" gradientUnits="userSpaceOnUse">
<stop stop-color="#F6F0EA"/>
<stop offset="1" stop-color="#F1DFD1"/>
</linearGradient>
<linearGradient id="paint7_linear_1_360" x1="10.5" y1="2.00685" x2="10.5" y2="6.84703" gradientUnits="userSpaceOnUse">
<stop stop-color="#F6F0EA"/>
<stop offset="1" stop-color="#F1DFD1"/>
</linearGradient>
<linearGradient id="paint8_linear_1_360" x1="5.65281" y1="0.388405" x2="5.65281" y2="4.42306" gradientUnits="userSpaceOnUse">
<stop stop-color="#FEB692"/>
<stop offset="1" stop-color="#EA5455"/>
</linearGradient>
<linearGradient id="paint9_linear_1_360" x1="10.5001" y1="0.388405" x2="10.5001" y2="4.42306" gradientUnits="userSpaceOnUse">
<stop stop-color="#FEB692"/>
<stop offset="1" stop-color="#EA5455"/>
</linearGradient>
<linearGradient id="paint10_linear_1_360" x1="15.3474" y1="0.388405" x2="15.3474" y2="4.42306" gradientUnits="userSpaceOnUse">
<stop stop-color="#FEB692"/>
<stop offset="1" stop-color="#EA5455"/>
</linearGradient>
</defs>
</svg>
