<svg width="18" height="22" viewBox="0 0 18 22" fill="none" xmlns="http://www.w3.org/2000/svg">
<path d="M9.06669 1.8006C5.74816 1.8006 3.05124 4.49753 3.05124 7.81605V10.7135C3.05124 11.3251 2.79057 12.2575 2.47977 12.7788L1.32681 14.6937C0.614978 15.8768 1.10624 17.1901 2.40959 17.6313C6.73069 19.075 11.3927 19.075 15.7138 17.6313C16.9269 17.2302 17.4582 15.7965 16.7965 14.6937L15.6436 12.7788C15.3428 12.2575 15.0821 11.3251 15.0821 10.7135V7.81605C15.0821 4.50755 12.3752 1.8006 9.06669 1.8006Z" stroke="#2B2A2A" stroke-width="1.5" stroke-miterlimit="10" stroke-linecap="round"/>
<path d="M10.9228 2.09088C10.612 2.00065 10.2912 1.93047 9.96032 1.89037C8.99785 1.77006 8.07548 1.84024 7.21326 2.09088C7.50401 1.34898 8.22587 0.827637 9.06803 0.827637C9.91019 0.827637 10.632 1.34898 10.9228 2.09088Z" stroke="#2B2A2A" stroke-width="1.5" stroke-miterlimit="10" stroke-linecap="round" stroke-linejoin="round"/>
<path d="M12.0735 17.9921C12.0735 19.6463 10.72 20.9998 9.06575 20.9998C8.24364 20.9998 7.48168 20.6589 6.94029 20.1176C6.3989 19.5762 6.05802 18.8142 6.05802 17.9921" stroke="#2B2A2A" stroke-width="1.5" stroke-miterlimit="10"/>
</svg>
