<svg width="24" height="24" viewBox="0 0 24 24" fill="none" xmlns="http://www.w3.org/2000/svg">
<path d="M12 24.0004L9.27521 22.1878L5.97307 22.4394L4.54203 19.4584L1.56103 18.0274L1.81259 14.7253L0 12.0004L1.81259 9.27554L1.56103 5.97345L4.54203 4.54246L5.97302 1.56141L9.27516 1.81302L12 0.00038147L14.7248 1.81297L18.027 1.56136L19.458 4.54241L22.439 5.97341L22.1874 9.2755L24 12.0004L22.1874 14.7252L22.439 18.0273L19.458 19.4584L18.027 22.4394L14.7248 22.1878L12 24.0004Z" fill="#FFDCAC"/>
<path d="M14.7248 22.1878L18.027 22.4394L19.4579 19.4584L22.439 18.0274L22.1874 14.7252L24 12.0004L22.1874 9.27554L22.439 5.97345L19.4579 4.54241L18.027 1.56141L14.7248 1.81297L12 0.00038147V24.0004L14.7248 22.1878Z" fill="#FFC702"/>
<path d="M11.9948 19.7039C7.74695 19.7039 4.29102 16.248 4.29102 12.0001C4.29102 7.75221 7.74695 4.29628 11.9948 4.29628C16.2427 4.29628 19.6987 7.75221 19.6987 12.0001C19.6987 16.248 16.2427 19.7039 11.9948 19.7039Z" fill="#4BB9EC"/>
<path d="M19.7038 12.0011C19.7038 7.75319 16.2479 4.29726 12 4.29726V19.7049C16.2479 19.7049 19.7038 16.249 19.7038 12.0011Z" fill="#0095FF"/>
<path d="M11.2986 15.7907L8.00195 12.494L8.99238 11.5036L11.2986 13.8098L15.0054 10.1029L15.9959 11.0934L11.2986 15.7907Z" fill="#FFF5F5"/>
<path d="M12 15.0923L15.9969 11.0953L15.0065 10.1049L12 13.1114V15.0923Z" fill="#EFE2DD"/>
</svg>
