<svg width="19" height="24" viewBox="0 0 19 24" fill="none" xmlns="http://www.w3.org/2000/svg">
<path d="M14.0738 17.4268L11.5872 14.709V11.4028H7.25138V14.71L4.79239 17.4268H14.0738Z" fill="#FFDDCE"/>
<path d="M13.6234 17.3784L11.3942 16.7239L9.42194 18.9855L6.01181 15.0748L2.38686 16.1388C0.971945 16.5541 0 17.8522 0 19.3269V22.8247C0 23.4741 0.526449 24.0005 1.17585 24.0005H2.77057L3.05796 23.7954H3.20744L3.49483 24.0005H15.3474L15.7692 23.6994H16.1191V20.7121C16.1191 19.1702 15.1029 17.8127 13.6234 17.3784Z" fill="#407093"/>
<path d="M16.4563 16.138L12.8317 15.0739L11.1467 17.0061L13.3984 17.6671C14.8132 18.0825 15.785 19.3806 15.785 20.8551V23.6988H16.0708V23.9998H17.6671C18.3165 23.9998 18.8429 23.4734 18.8429 22.824V19.3261C18.8429 17.8515 17.8711 16.5534 16.4563 16.138Z" fill="#365E7D"/>
<path d="M3.48633 24.0006V22.0774C3.48633 21.8774 3.32419 21.7152 3.12418 21.7152C2.92416 21.7152 2.76202 21.8774 2.76202 22.0774V24.0006H3.48633Z" fill="#365E7D"/>
<path d="M16.0617 24.0006V22.0774C16.0617 21.8774 15.8995 21.7152 15.6995 21.7152C15.4995 21.7152 15.3374 21.8774 15.3374 22.0774V24.0006H16.0617Z" fill="#365E7D"/>
<path d="M2.89328 7.08622L2.52198 6.67682H1.72839L1.3571 7.08622L0.867776 9.95823C0.821605 10.2293 1.03043 10.4768 1.30544 10.4768H2.94484C3.21985 10.4768 3.42868 10.2293 3.38251 9.95823L2.89328 7.08622Z" fill="#E4F6FF"/>
<path d="M2.48834 6.38822V2.75656C2.48834 2.55655 2.32621 2.39441 2.12619 2.39441C1.92618 2.39441 1.76404 2.55655 1.76404 2.75656V6.38822H2.48834Z" fill="#407093"/>
<path d="M11.4263 2.46471H11.3464H7.49157H7.4117C5.96036 2.46471 4.78386 3.64121 4.78386 5.09254V5.13393V7.62724L5.21843 8.01011H14.0541V5.13393V5.09254C14.0541 3.64126 12.8776 2.46471 11.4263 2.46471Z" fill="#EFC984"/>
<path d="M11.4331 2.46638H11.3532H11.013V8.01179H13.6597L14.0609 7.62892V5.13561V5.09422C14.0609 3.64294 12.8843 2.46638 11.4331 2.46638Z" fill="#EABC6B"/>
<path d="M9.42662 13.3154C9.47031 13.3154 9.51376 13.3146 9.55707 13.3132C10.5939 12.6547 11.2981 11.5194 11.3609 10.2154V5.62555H6.37499V6.83341C6.37499 7.27221 6.01926 7.62789 5.58051 7.62789H4.79152V8.92712C4.79152 9.25908 5.06063 9.52824 5.39264 9.52824C5.49736 9.52824 5.58262 9.61031 5.58918 9.71484C5.71593 11.7245 7.38504 13.3154 9.42662 13.3154Z" fill="#FFDDCE"/>
<path d="M13.2737 7.62899C12.8349 7.62899 12.4792 7.27331 12.4792 6.83451V5.62665H11.014V10.0983C10.9475 11.4798 10.1525 12.6696 9.00504 13.2927C9.14388 13.3079 9.28464 13.3165 9.42752 13.3165C11.4691 13.3165 13.1382 11.7256 13.265 9.71594C13.2716 9.61141 13.3568 9.52933 13.4615 9.52933C13.7935 9.52933 14.0626 9.26023 14.0626 8.92821V7.62899H13.2737Z" fill="#FFCBBE"/>
<path d="M11.36 4.08385V3.18863C10.9189 3.18517 10.5623 2.82686 10.5623 2.38492V0.776091L10.2239 0.233893L9.54928 0.0193006C9.46837 -0.00643354 9.38151 -0.00643354 9.30061 0.0193006L1.95578 2.35548C1.54604 2.4858 1.58739 3.07857 2.01123 3.15076L9.42496 4.41342L11.36 4.08385Z" fill="#407093"/>
<path d="M11.3606 3.20276L10.2924 3.07062C9.71669 2.99942 9.13442 2.99942 8.55875 3.07067L4.49341 3.57373V5.38534C4.49341 5.58165 4.65255 5.74079 4.84886 5.74079H11.3606V3.20276Z" fill="#4A80AA"/>
<path d="M16.8927 2.35473L10.2224 0.233139V2.35876C10.2224 2.79545 10.5748 3.14954 11.0106 3.15296V4.14239L16.8372 3.15005C17.261 3.07777 17.3024 2.48504 16.8927 2.35473Z" fill="#365E7D"/>
<path d="M11.013 3.15938V5.74043H14.004C14.2003 5.74043 14.3594 5.5813 14.3594 5.38498V3.57333L11.013 3.15938Z" fill="#407093"/>
<path d="M2.89503 7.08603H1.3589V6.07766C1.3589 5.8634 1.53257 5.68973 1.74684 5.68973H2.50705C2.72131 5.68973 2.89498 5.8634 2.89498 6.07766L2.89503 7.08603Z" fill="#FFE07D"/>
<path d="M11.5892 13.4989C11.5892 14.9055 11.1809 16.2819 10.4139 17.4609L9.42213 18.9853L14.9552 15.6974L11.5892 13.4989Z" fill="#4A80AA"/>
<path d="M7.25475 13.4989C7.25475 14.9055 7.66308 16.2819 8.43013 17.4609L9.42186 18.9853L3.88878 15.6974L7.25475 13.4989Z" fill="#4A80AA"/>
<path d="M11.2714 15.6283C10.7023 15.7536 10.0788 15.823 9.42445 15.823C8.77018 15.823 8.14656 15.7536 7.5775 15.6283C7.77508 16.2724 8.06143 16.8896 8.43268 17.4602L9.42445 18.9846L10.4162 17.4602C10.7875 16.8896 11.0738 16.2724 11.2714 15.6283Z" fill="#F4FBFF"/>
</svg>
